<mxfile host="app.diagrams.net" modified="2023-08-14T12:44:26.858Z" agent="Mozilla/5.0 (Windows NT 10.0; Win64; x64) AppleWebKit/537.36 (KHTML, like Gecko) Chrome/115.0.0.0 Safari/537.36" version="21.6.8" etag="kcb4VALj9lNLt477IQQ8" type="github">
  <diagram name="第 1 页" id="kVqFmLF5WTRn5idvBjW_">
    <mxGraphModel>
      <root>
        <mxCell id="0" />
        <mxCell id="1" parent="0" />
      </root>
    </mxGraphModel>
  </diagram>
</mxfile>
